HIERARCHY
ROOT Hips
{
  OFFSET 5.84602e-005 68.8428 3.50346
  CHANNELS 6 Xposition Yposition Zposition Zrotation Xrotation Yrotation
  JOINT Spine
  {
    OFFSET 0 8.597 -4.6522
    CHANNELS 3 Zrotation Xrotation Yrotation
    JOINT Spine1
    {
      OFFSET 0 7.8454 0.4098
      CHANNELS 3 Zrotation Xrotation Yrotation
      JOINT Spine2
      {
        OFFSET 0 9.7078 -2.1609
        CHANNELS 3 Zrotation Xrotation Yrotation
        JOINT Neck
        {
          OFFSET 0 21.8761 -0.4549
          CHANNELS 3 Zrotation Xrotation Yrotation
          JOINT Head
          {
            OFFSET 0 12.3537 3.3602
            CHANNELS 3 Zrotation Xrotation Yrotation
            End Site
            {
              OFFSET 0.0001 18.9506 0.5657
            }
          }
        }
        JOINT LeftShoulder
        {
          OFFSET 2.2086 21.1115 7.2329
          CHANNELS 3 Zrotation Xrotation Yrotation
          JOINT LeftArm
          {
            OFFSET 13.1193 3.0282 -4.8998
            CHANNELS 3 Zrotation Xrotation Yrotation
            JOINT LeftForeArm
            {
              OFFSET 27.4081 -0.0973053 -0.2375
              CHANNELS 3 Zrotation Xrotation Yrotation
              JOINT LeftHand
              {
                OFFSET 22.8641 0.0662994 -0.1369
                CHANNELS 3 Zrotation Xrotation Yrotation
                JOINT LeftHandIndex1
                {
                  OFFSET 8.8614 0.775009 2.4612
                  CHANNELS 3 Zrotation Xrotation Yrotation
                  JOINT LeftHandIndex2
                  {
                    OFFSET 3.3146 -0.808304 0.5841
                    CHANNELS 3 Zrotation Xrotation Yrotation
                    JOINT LeftHandIndex3
                    {
                      OFFSET 2.2628 -0.552002 0.3989
                      CHANNELS 3 Zrotation Xrotation Yrotation
                      End Site
                      {
                        OFFSET 1.6102 -0.4807 0.2612
                      }
                    }
                  }
                }
                JOINT LeftHandMiddle1
                {
                  OFFSET 8.9937 0.895004 0.2143
                  CHANNELS 3 Zrotation Xrotation Yrotation
                  JOINT LeftHandMiddle2
                  {
                    OFFSET 4.0984 0.0113983 -0.0242
                    CHANNELS 3 Zrotation Xrotation Yrotation
                    JOINT LeftHandMiddle3
                    {
                      OFFSET 2.2716 0.00689697 -0.0138001
                      CHANNELS 3 Zrotation Xrotation Yrotation
                      End Site
                      {
                        OFFSET 2.0404 -0.1441 0.0027
                      }
                    }
                  }
                }
                JOINT LeftHandRing1
                {
                  OFFSET 8.5234 0.597198 -2.0164
                  CHANNELS 3 Zrotation Xrotation Yrotation
                  JOINT LeftHandRing2
                  {
                    OFFSET 3.7188 -0.188293 -0.2328
                    CHANNELS 3 Zrotation Xrotation Yrotation
                    JOINT LeftHandRing3
                    {
                      OFFSET 2.1191 -0.106598 -0.1332
                      CHANNELS 3 Zrotation Xrotation Yrotation
                      End Site
                      {
                        OFFSET 1.8737 -0.2304 -0.0886
                      }
                    }
                  }
                }
                JOINT LeftHandPinky1
                {
                  OFFSET 7.9094 -0.601089 -3.4825
                  CHANNELS 3 Zrotation Xrotation Yrotation
                  JOINT LeftHandPinky2
                  {
                    OFFSET 2.2874 -0.477005 -0.6314
                    CHANNELS 3 Zrotation Xrotation Yrotation
                    JOINT LeftHandPinky3
                    {
                      OFFSET 1.6774 -0.349396 -0.4633
                      CHANNELS 3 Zrotation Xrotation Yrotation
                      End Site
                      {
                        OFFSET 1.4888 -0.4091 -0.3416
                      }
                    }
                  }
                }
                JOINT LeftHandThumb1
                {
                  OFFSET 1.833 -1.3875 1.3896
                  CHANNELS 3 Zrotation Xrotation Yrotation
                  JOINT LeftHandThumb2
                  {
                    OFFSET 3.4129 -1.121 2.5732
                    CHANNELS 3 Zrotation Xrotation Yrotation
                    JOINT LeftHandThumb3
                    {
                      OFFSET 2.2474 -0.804199 1.6192
                      CHANNELS 3 Zrotation Xrotation Yrotation
                      End Site
                      {
                        OFFSET 1.6527 -0.5689 1.1317
                      }
                    }
                  }
                }
              }
            }
          }
        }
        JOINT RightShoulder
        {
          OFFSET -2.2086 21.1115 7.2329
          CHANNELS 3 Zrotation Xrotation Yrotation
          JOINT RightArm
          {
            OFFSET -13.1216 3.0287 -4.9007
            CHANNELS 3 Zrotation Xrotation Yrotation
            JOINT RightForeArm
            {
              OFFSET -27.4081 -0.0973053 -0.2375
              CHANNELS 3 Zrotation Xrotation Yrotation
              JOINT RightHand
              {
                OFFSET -22.8641 0.0664063 -0.1369
                CHANNELS 3 Zrotation Xrotation Yrotation
                JOINT RightHandIndex1
                {
                  OFFSET -8.8614 0.774994 2.4612
                  CHANNELS 3 Zrotation Xrotation Yrotation
                  JOINT RightHandIndex2
                  {
                    OFFSET -3.3146 -0.808304 0.5841
                    CHANNELS 3 Zrotation Xrotation Yrotation
                    JOINT RightHandIndex3
                    {
                      OFFSET -2.2628 -0.552002 0.3989
                      CHANNELS 3 Zrotation Xrotation Yrotation
                      End Site
                      {
                        OFFSET -1.6102 -0.4807 0.2612
                      }
                    }
                  }
                }
                JOINT RightHandMiddle1
                {
                  OFFSET -8.9937 0.894989 0.2143
                  CHANNELS 3 Zrotation Xrotation Yrotation
                  JOINT RightHandMiddle2
                  {
                    OFFSET -4.0984 0.0113983 -0.0242
                    CHANNELS 3 Zrotation Xrotation Yrotation
                    JOINT RightHandMiddle3
                    {
                      OFFSET -2.2716 0.00691223 -0.0138001
                      CHANNELS 3 Zrotation Xrotation Yrotation
                      End Site
                      {
                        OFFSET -2.0404 -0.1441 0.0027
                      }
                    }
                  }
                }
                JOINT RightHandRing1
                {
                  OFFSET -8.5234 0.597198 -2.0164
                  CHANNELS 3 Zrotation Xrotation Yrotation
                  JOINT RightHandRing2
                  {
                    OFFSET -3.7188 -0.188309 -0.2328
                    CHANNELS 3 Zrotation Xrotation Yrotation
                    JOINT RightHandRing3
                    {
                      OFFSET -2.1191 -0.106598 -0.1332
                      CHANNELS 3 Zrotation Xrotation Yrotation
                      End Site
                      {
                        OFFSET -1.8737 -0.2304 -0.0886
                      }
                    }
                  }
                }
                JOINT RightHandPinky1
                {
                  OFFSET -7.9094 -0.601105 -3.4825
                  CHANNELS 3 Zrotation Xrotation Yrotation
                  JOINT RightHandPinky2
                  {
                    OFFSET -2.2874 -0.477005 -0.6314
                    CHANNELS 3 Zrotation Xrotation Yrotation
                    JOINT RightHandPinky3
                    {
                      OFFSET -1.6774 -0.349396 -0.4633
                      CHANNELS 3 Zrotation Xrotation Yrotation
                      End Site
                      {
                        OFFSET -1.4888 -0.4091 -0.3416
                      }
                    }
                  }
                }
                JOINT RightHandThumb1
                {
                  OFFSET -1.833 -1.38751 1.3896
                  CHANNELS 3 Zrotation Xrotation Yrotation
                  JOINT RightHandThumb2
                  {
                    OFFSET -3.41299 -1.12099 2.5732
                    CHANNELS 3 Zrotation Xrotation Yrotation
                    JOINT RightHandThumb3
                    {
                      OFFSET -2.24741 -0.804108 1.6192
                      CHANNELS 3 Zrotation Xrotation Yrotation
                      End Site
                      {
                        OFFSET -1.6527 -0.5689 1.1317
                      }
                    }
                  }
                }
              }
            }
          }
        }
      }
    }
  }
  JOINT RightUpLeg
  {
    OFFSET -9.1966 3.8861 -0.7581
    CHANNELS 3 Zrotation Xrotation Yrotation
    JOINT RightLeg
    {
      OFFSET -0.7359 -41.0265 0
      CHANNELS 3 Zrotation Xrotation Yrotation
      JOINT RightFoot
      {
        OFFSET 0 -40.2855 0
        CHANNELS 3 Zrotation Xrotation Yrotation
        JOINT RightToeBase
        {
          OFFSET 0 -5.6122 11.7359
          CHANNELS 3 Zrotation Xrotation Yrotation
          End Site
          {
            OFFSET 0 0 7.8731
          }
        }
      }
    }
  }
  JOINT LeftUpLeg
  {
    OFFSET 9.1965 3.8864 -0.7581
    CHANNELS 3 Zrotation Xrotation Yrotation
    JOINT LeftLeg
    {
      OFFSET 0.7359 -41.0268 0
      CHANNELS 3 Zrotation Xrotation Yrotation
      JOINT LeftFoot
      {
        OFFSET 0 -40.2855 0
        CHANNELS 3 Zrotation Xrotation Yrotation
        JOINT LeftToeBase
        {
          OFFSET 0 -5.6122 11.7359
          CHANNELS 3 Zrotation Xrotation Yrotation
          End Site
          {
            OFFSET 0 0 7.8731
          }
        }
      }
    }
  }
}
MOTION
Frames:	5
Frame Time:	0.0333333
-0.000134034 4.84266 85.5544 -180 -85.9956 -180 -0.00142235 0.382742 -0.0900079 -0.00224344 0.765501 -0.180012 -0.00224342 0.765502 -0.180012 -2.02686e-005 12.9999 9.92628e-005 6.02063e-008 -1.34719 -2.5203e-009 -0.680028 -4.16265 1.99073 -83.0956 0.343105 -2.19375 2.23841 -1.61513 -44.8807 -16.5708 -1.75549 6.28698 3.97569e-016 -2.70347e-014 -6.36111e-015 -1.98785e-015 -2.54444e-014 -1.90833e-014 1.98785e-015 -2.50469e-014 -9.54166e-015 3.97569e-016 -2.70347e-014 -6.36111e-015 -0.0146474 -9.23521e-005 -6.91511e-006 3.18055e-015 1.19271e-015 -6.36111e-015 3.97569e-016 -2.70347e-014 -6.36111e-015 -0.018725 -0.00117381 5.78339e-005 1.19271e-015 0 -9.54166e-015 3.97569e-016 -2.70347e-014 -6.36111e-015 -0.0123193 -0.00326906 0.000678156 -7.95139e-016 -1.98785e-015 -3.18055e-015 3.97569e-016 -2.70347e-014 -6.36111e-015 -1.98785e-015 -2.54444e-014 -1.90833e-014 1.98785e-015 -2.50469e-014 -9.54166e-015 2.23771 -0.0794481 -3.11299 82.6412 0.532612 0.96683 1.25984 2.72154 66.1751 16.3307 0.267687 -2.30848 2.98177e-015 -1.59028e-015 -6.36111e-015 5.46658e-015 -1.78906e-015 -6.36111e-015 2.5842e-015 -1.59028e-015 -3.18055e-015 2.98177e-015 -1.59028e-015 -6.36111e-015 0.0149852 -9.05402e-005 2.92547e-006 3.97569e-016 -7.95139e-016 -3.18055e-015 2.98177e-015 -1.59028e-015 -6.36111e-015 0.0190215 -0.00119215 -5.42243e-005 -1.59028e-015 -7.95139e-016 -0 2.98177e-015 -1.59028e-015 -6.36111e-015 0.0122748 -0.00325426 -0.000677695 -9.93923e-017 3.97569e-016 -0 2.98177e-015 -1.59028e-015 -6.36111e-015 5.46658e-015 -1.78906e-015 -6.36111e-015 2.5842e-015 -1.59028e-015 -3.18055e-015 -40.2126 -29.9133 -30.9665 -114.964 63.1918 121.051 -5.97356 11.764 8.78389 4.26679e-007 -6.81821e-007 -1.7406e-006 39.9644 -29.895 30.6159 114.969 63.1906 -121.06 5.70687 11.7882 -8.61698 7.95139e-016 -3.18055e-015 -3.18055e-015 
-0.000120672 4.84254 85.5543 -180 -85.9956 -180 -0.00129066 0.337624 -0.0900086 -0.00205092 0.675286 -0.180014 -0.00205086 0.675271 -0.180014 -3.1643e-005 13.7515 0.000144519 -3.09905e-008 -0.481965 -1.43894e-009 -1.29536 -3.84172 1.80576 -82.6494 0.283418 -2.34209 2.34248 -1.73291 -44.4615 -16.5565 -1.58616 5.95513 -7.59973e-007 3.76645e-007 -8.83343e-007 1.19271e-015 -2.78299e-015 1.90833e-014 7.59973e-007 -3.76645e-007 8.83343e-007 -7.59973e-007 3.76645e-007 -8.83343e-007 -0.014593 -8.91239e-005 4.3018e-006 1.19271e-015 1.98785e-015 -1.27222e-014 -7.59973e-007 3.76645e-007 -8.83343e-007 -0.0188166 -0.00118234 6.69479e-005 -1.19271e-015 -1.19271e-015 3.18055e-015 -7.59973e-007 3.76645e-007 -8.83343e-007 -0.0123064 -0.00325099 0.000679825 -7.61148e-007 3.7644e-007 -8.83217e-007 -7.59973e-007 3.76645e-007 -8.83343e-007 1.19271e-015 -2.78299e-015 1.90833e-014 7.59973e-007 -3.76645e-007 8.83343e-007 2.71553 -0.101429 -2.85481 82.2304 0.460393 1.21768 1.18325 2.51554 65.5712 16.3307 0.267684 -2.30848 3.97569e-016 0 -0 1.09332e-015 7.95139e-016 3.18055e-015 -4.96962e-016 9.93923e-016 3.18055e-015 3.97569e-016 0 -0 0.0149767 -8.9849e-005 -2.24267e-006 -2.98177e-016 -7.95139e-016 3.18055e-015 3.97569e-016 0 -0 0.0190142 -0.00118933 -6.17177e-005 1.49089e-015 7.95139e-016 -3.18055e-015 3.97569e-016 0 -0 0.0122938 -0.0032547 -0.000678622 -1.37161e-014 -5.36719e-015 -0 3.97569e-016 0 -0 1.09332e-015 7.95139e-016 3.18055e-015 -4.96962e-016 9.93923e-016 3.18055e-015 -39.6212 -29.9577 -30.2651 -114.963 63.1919 121.052 -5.3638 11.7113 8.3394 4.16798e-007 8.1971e-008 -3.86135e-008 39.3934 -29.9385 29.9435 114.968 63.1909 -121.061 5.11922 11.7318 -8.18678 -2.52925e-007 9.15616e-007 3.62393e-009 
-0.000107231 4.84242 85.5543 -180 -85.9956 -180 -0.00115923 0.29252 -0.0900088 -0.00185898 0.585047 -0.180015 -0.00185898 0.585044 -0.180015 -4.34385e-005 14.503 0.000188723 -6.93004e-009 0.382998 -6.11677e-008 -1.90933 -3.51881 1.62435 -82.2033 0.222566 -2.49001 2.44741 -1.84991 -44.0421 -16.5412 -1.41694 5.62327 -7.60262e-007 3.77273e-007 -8.83417e-007 4.41391e-032 7.95139e-016 -3.18055e-015 3.97569e-016 3.97569e-016 3.18055e-015 -7.60262e-007 3.77273e-007 -8.83417e-007 -0.0146316 -9.209e-005 5.30012e-006 1.98785e-015 7.95139e-016 -0 -7.60262e-007 3.77273e-007 -8.83417e-007 -0.0187291 -0.00117179 4.98367e-005 -3.97569e-016 3.97569e-016 6.36111e-015 -7.60262e-007 3.77273e-007 -8.83417e-007 -0.0122245 -0.00323902 0.000672863 1.19271e-015 -3.97569e-016 -3.18055e-015 -7.60262e-007 3.77273e-007 -8.83417e-007 4.41391e-032 7.95139e-016 -3.18055e-015 3.97569e-016 3.97569e-016 3.18055e-015 3.1934 -0.121186 -2.59649 81.8199 0.386346 1.46804 1.10451 2.3104 64.9672 16.3307 0.267689 -2.30847 3.8763e-015 -7.95139e-016 -6.36111e-015 2.70748e-006 -4.86541e-007 -3.17222e-007 2.83683e-006 5.223e-007 7.01775e-007 3.8763e-015 -7.95139e-016 -6.36111e-015 0.0150089 -9.00407e-005 -3.12216e-006 -2.83484e-006 -5.22403e-007 -7.01705e-007 3.8763e-015 -7.95139e-016 -6.36111e-015 0.0189811 -0.00119098 -6.19376e-005 2.83432e-006 5.22575e-007 7.01667e-007 3.8763e-015 -7.95139e-016 -6.36111e-015 0.0122382 -0.00324009 -0.00067318 2.83522e-006 5.2282e-007 7.01728e-007 3.8763e-015 -7.95139e-016 -6.36111e-015 2.70748e-006 -4.86541e-007 -3.17222e-007 2.83683e-006 5.223e-007 7.01775e-007 -39.029 -29.996 -29.563 -114.963 63.1921 121.053 -4.75472 11.654 7.89562 8.82781e-032 1.59028e-015 -3.18055e-015 38.8216 -29.9764 29.2703 114.967 63.1911 -121.062 4.53224 11.6711 -7.75724 4.16832e-007 -8.19176e-008 -3.84106e-008 
-9.29568e-005 4.84231 85.5542 -180 -85.9956 -180 -0.00102738 0.2473 -0.0899665 -0.00166639 0.494611 -0.179931 -0.00166647 0.494604 -0.179931 -2.96277e-006 15.2549 1.50759e-005 -3.80086e-008 1.24763 -5.61263e-008 -2.52192 -3.19344 1.44633 -81.7574 0.160559 -2.63741 2.55321 -1.96613 -43.6225 -16.5248 -1.24782 5.29144 -3.97569e-016 -3.97569e-016 9.54166e-015 3.97569e-016 0 6.36111e-015 -3.97569e-016 3.97569e-016 9.54166e-015 -3.97569e-016 -3.97569e-016 9.54166e-015 -0.0146084 -8.55298e-005 7.95273e-007 -1.19271e-015 -7.95139e-016 -0 -3.97569e-016 -3.97569e-016 9.54166e-015 -0.0187826 -0.00117462 5.68793e-005 -3.97569e-016 -3.97569e-016 -0 -3.97569e-016 -3.97569e-016 9.54166e-015 -0.0122219 -0.00323258 0.000674563 -2.38542e-015 -3.97569e-016 -9.54166e-015 -3.97569e-016 -3.97569e-016 9.54166e-015 3.97569e-016 0 6.36111e-015 -3.97569e-016 3.97569e-016 9.54166e-015 3.67127 -0.138187 -2.3383 81.4098 0.310547 1.71779 1.02364 2.10612 64.3631 16.3307 0.267686 -2.30848 2.18663e-015 -9.93923e-016 -3.18055e-015 2.98177e-016 -7.95139e-016 -3.18055e-015 7.95139e-016 -1.78906e-015 -3.18055e-015 2.18663e-015 -9.93923e-016 -3.18055e-015 0.0149909 -9.05078e-005 7.7329e-007 -2.20695e-032 -1.98785e-016 -6.36111e-015 2.18663e-015 -9.93923e-016 -3.18055e-015 0.0190219 -0.00119022 -6.32802e-005 4.57205e-015 -9.93923e-016 9.54166e-015 2.18663e-015 -9.93923e-016 -3.18055e-015 0.0122352 -0.00324172 -0.000672231 5.76476e-015 -1.59028e-015 -3.18055e-015 2.18663e-015 -9.93923e-016 -3.18055e-015 2.98177e-016 -7.95139e-016 -3.18055e-015 7.95139e-016 -1.78906e-015 -3.18055e-015 -38.4362 -30.0279 -28.8604 -114.962 63.1923 121.054 -4.14636 11.592 7.45258 5.14708e-007 1.0662e-006 -1.71037e-006 38.2492 -30.0083 28.5967 114.965 63.1914 -121.062 3.94599 11.6061 -7.3285 -1.13751e-008 -4.54528e-007 -7.10309e-007 
-7.86275e-005 4.8422 85.5542 -180 -85.9956 -180 -0.000897009 0.202432 -0.0900584 -0.00147585 0.404871 -0.180115 -0.00147573 0.404859 -0.180115 -0.000142501 16.0049 0.000539335 9.17894e-008 2.11185 -3.8795e-008 -3.13307 -2.86803 1.2725 -81.3119 0.0974566 -2.78429 2.65984 -2.08157 -43.2027 -16.5076 -1.07881 4.95958 -1.98785e-015 -2.38542e-015 -0 -3.18055e-015 -1.59028e-015 -0 -7.95139e-016 -1.19271e-015 -0 -1.98785e-015 -2.38542e-015 -0 -0.0145864 -9.49446e-005 5.53915e-006 -7.95139e-016 -3.97569e-015 3.18055e-015 -1.98785e-015 -2.38542e-015 -0 -0.0187538 -0.00117895 6.12677e-005 8.82781e-032 7.95139e-016 -6.36111e-015 -1.98785e-015 -2.38542e-015 -0 -0.0122643 -0.00324694 0.000672654 -1.19271e-015 -7.95139e-016 -9.54166e-015 -1.98785e-015 -2.38542e-015 -0 -3.18055e-015 -1.59028e-015 -0 -7.95139e-016 -1.19271e-015 -0 4.14913 -0.154651 -2.07924 81 0.232957 1.96697 0.940676 1.9028 63.759 16.3307 0.267683 -2.30847 1.78906e-015 1.98785e-015 3.18055e-015 5.56802e-006 -2.68045e-007 -1.96672e-006 3.67752e-015 -1.19271e-015 3.18055e-015 1.78906e-015 1.98785e-015 3.18055e-015 0.0150127 -8.86921e-005 -3.41593e-006 -1.78906e-015 -5.96354e-016 3.18055e-015 1.78906e-015 1.98785e-015 3.18055e-015 0.0190058 -0.00119232 -6.03077e-005 -2.8446e-006 -5.34489e-007 -7.25411e-007 1.78906e-015 1.98785e-015 3.18055e-015 0.0122668 -0.00324471 -0.000682853 2.8455e-006 5.34734e-007 7.25473e-007 1.78906e-015 1.98785e-015 3.18055e-015 5.56802e-006 -2.68045e-007 -1.96672e-006 3.67752e-015 -1.19271e-015 3.18055e-015 -37.843 -30.0535 -28.1574 -114.961 63.1925 121.055 -3.53881 11.5255 7.01044 -4.16807e-007 -8.18649e-008 3.8854e-008 37.6765 -30.0345 27.9228 114.964 63.1916 -121.063 3.36053 11.5367 -6.90059 4.16833e-007 -8.18439e-008 -3.86268e-008 
